<?xml version="1.0" standalone="no"?>
<!DOCTYPE svg PUBLIC "-//W3C//DTD SVG 20010904//EN"
 "http://www.w3.org/TR/2001/REC-SVG-20010904/DTD/svg10.dtd">
<svg version="1.0" xmlns="http://www.w3.org/2000/svg"
 width="1234.000000pt" height="1168.000000pt" viewBox="0 0 1234.000000 1168.000000"
 preserveAspectRatio="xMidYMid meet">

<g transform="translate(0.000000,1168.000000) scale(0.100000,-0.100000)"
fill="#ffffff" stroke="none">
<path d="M5870 11379 c-237 -13 -596 -62 -831 -114 -719 -159 -1346 -424
-1939 -820 -1100 -735 -1892 -1803 -2275 -3070 -95 -314 -171 -691 -201 -1000
-7 -77 -18 -180 -25 -230 -14 -111 -6 -810 10 -870 6 -22 13 -85 17 -140 12
-196 93 -614 176 -905 138 -488 377 -1023 651 -1460 678 -1078 1732 -1915
2924 -2321 418 -142 887 -246 1258 -279 65 -6 149 -15 185 -20 86 -13 688 -13
765 0 33 5 122 14 198 20 149 11 377 45 571 86 591 123 1140 331 1656 627 150
86 482 308 641 429 356 269 707 620 1006 1004 481 617 825 1322 1011 2069 62
248 117 566 148 860 27 249 24 806 -4 1069 -65 599 -178 1050 -397 1591 -101
249 -166 383 -291 602 -446 783 -994 1384 -1726 1892 -408 283 -925 542 -1398
700 -176 59 -501 146 -660 176 -257 49 -286 54 -395 66 -60 6 -113 13 -116 15
-33 20 -719 36 -959 23z m710 -1095 c599 -50 1117 -194 1640 -455 230 -116
381 -205 568 -336 267 -188 400 -300 623 -522 318 -318 537 -606 766 -1007 84
-145 96 -171 193 -389 282 -636 406 -1317 372 -2037 -42 -875 -325 -1687 -841
-2408 -127 -179 -348 -442 -461 -550 -247 -237 -355 -330 -560 -481 -481 -354
-1081 -630 -1635 -752 -275 -61 -336 -71 -675 -107 -47 -5 -209 -9 -360 -9
-229 -1 -310 3 -485 23 -115 13 -230 29 -255 35 -25 5 -94 20 -155 31 -612
119 -1202 376 -1738 758 -315 223 -659 551 -919 872 -51 64 -233 323 -299 427
-113 178 -303 558 -384 768 -114 297 -209 665 -250 960 -7 55 -19 134 -25 175
-15 92 -16 843 -2 945 35 248 43 306 53 355 129 658 350 1193 713 1729 259
382 642 784 1031 1082 333 255 827 520 1230 659 591 203 1244 286 1855 234z"/>
</g>
</svg>
