<?xml version="1.0" standalone="no"?>
<!DOCTYPE svg PUBLIC "-//W3C//DTD SVG 20010904//EN"
 "http://www.w3.org/TR/2001/REC-SVG-20010904/DTD/svg10.dtd">
<svg version="1.0" xmlns="http://www.w3.org/2000/svg"
 width="593.000000pt" height="573.000000pt" viewBox="0 0 593.000000 573.000000"
 preserveAspectRatio="xMidYMid meet">

<g transform="translate(0.000000,573.000000) scale(0.100000,-0.100000)"
fill="#ffffff" stroke="none">
<path d="M2794 5680 c-964 -81 -1809 -635 -2266 -1482 -327 -607 -415 -1317
-249 -2010 114 -478 391 -960 757 -1320 528 -519 1232 -808 1965 -808 647 0
1233 203 1754 607 96 75 318 289 400 387 224 266 410 594 516 909 94 281 137
524 146 832 21 706 -217 1378 -673 1905 -465 538 -1085 872 -1789 965 -147 19
-424 27 -561 15z m540 -564 c766 -112 1435 -622 1750 -1334 126 -287 189 -586
189 -907 0 -357 -69 -661 -222 -980 -112 -233 -241 -417 -426 -606 -187 -192
-382 -333 -620 -449 -168 -82 -244 -112 -390 -150 -241 -64 -295 -72 -537 -77
-258 -6 -368 4 -568 49 -423 96 -792 300 -1101 609 -414 415 -645 944 -666
1524 -17 465 124 958 380 1335 174 255 422 497 673 655 309 194 626 303 999
345 112 12 409 4 539 -14z"/>
<path d="M3369 3636 l-362 -375 -113 107 c-62 59 -232 224 -379 366 l-266 260
-187 -194 c-103 -106 -187 -197 -187 -200 0 -4 165 -168 367 -365 203 -196
368 -362 368 -368 0 -11 -100 -116 -612 -642 l-108 -110 190 -187 c104 -104
193 -188 198 -188 5 0 67 60 139 133 71 72 236 240 365 371 l235 239 229 -224
c126 -123 292 -286 369 -361 78 -76 146 -138 152 -138 6 0 95 86 197 191 l187
192 -228 221 c-125 121 -295 286 -377 367 l-149 147 365 376 366 376 -156 153
c-86 83 -173 169 -193 190 -20 20 -38 37 -42 37 -3 0 -168 -168 -368 -374z"/>
</g>
</svg>
